<svg width="20" height="20" viewBox="0 0 24 24" xmlns="http://www.w3.org/2000/svg">
  <defs>
    <linearGradient id="whatsappGold" x1="0" y1="0" x2="1" y2="1">
      <stop offset="0%" stop-color="#f0d060" />
      <stop offset="60%" stop-color="#d4af37" />
      <stop offset="100%" stop-color="#a88a2a" />
    </linearGradient>
  </defs>
  <path fill="url(#whatsappGold)" d="M20.52 3.48A11.95 11.95 0 0 0 12 0C5.37 0 0 5.37 0 12c0 2.1.55 4.14 1.6 5.92L0 24l6.27-1.65A11.94 11.94 0 0 0 12 24c6.63 0 12-5.37 12-12 0-3.19-1.25-6.19-3.48-8.52zm-8.52 17.1a9.3 9.3 0 0 1-4.76-1.3l-.34-.2-3.7.98.99-3.61-.22-.37A9.28 9.28 0 0 1 2.7 12c0-5.1 4.14-9.24 9.24-9.24 2.47 0 4.79.96 6.54 2.7a9.22 9.22 0 0 1 2.7 6.54 9.28 9.28 0 0 1-9.28 9.28zm5.08-6.7c-.28-.14-1.66-.82-1.92-.92-.26-.1-.45-.14-.64.14-.18.28-.7.92-.86 1.11-.16.18-.33.2-.61.07-.26-.14-1.1-.41-2.1-1.29-.78-.7-1.3-1.57-1.45-1.84-.15-.28-.02-.43.12-.56.12-.12.28-.32.42-.48.14-.16.18-.28.27-.47.09-.18.04-.34-.02-.48-.06-.14-.64-1.54-.88-2.11-.23-.55-.47-.47-.64-.48l-.55-.01c-.18 0-.48.07-.73.34-.25.27-.96.94-.96 2.29 0 1.34.98 2.64 1.12 2.82.14.18 1.93 2.96 4.67 4.15.65.28 1.16.45 1.56.58.66.21 1.26.18 1.73.11.53-.08 1.66-.68 1.9-1.33.24-.66.24-1.23.17-1.35-.07-.12-.26-.18-.54-.31z"/>
</svg>