<svg width="20" height="20" viewBox="0 0 24 24" xmlns="http://www.w3.org/2000/svg">
  <defs>
    <linearGradient id="instagramGold" x1="0" y1="0" x2="1" y2="1">
      <stop offset="0%" stop-color="#f0d060" />
      <stop offset="60%" stop-color="#d4af37" />
      <stop offset="100%" stop-color="#a88a2a" />
    </linearGradient>
  </defs>
  <path fill="url(#instagramGold)" stroke="url(#instagramGold)" stroke-width="1.6" stroke-linejoin="round" stroke-linecap="round" d="M12 2.163c3.204 0 3.584.012 4.849.07 1.366.062 2.633.36 3.608 1.334.976.976 1.273 2.243 1.335 3.608.058 1.265.07 1.645.07 4.849s-.012 3.584-.07 4.849c-.062 1.366-.36 2.633-1.335 3.608-.976.976-2.243 1.273-3.608 1.335-1.265.058-1.645.07-4.849.07s-3.584-.012-4.849-.07c-1.366-.062-2.633-.36-3.608-1.335-.976-.976-1.273-2.243-1.335-3.608C2.175 15.584 2.163 15.204 2.163 12s.012-3.584.07-4.849c.062-1.366.36-2.633 1.335-3.608.976-.976 2.243-1.273 3.608-1.335C8.416 2.175 8.796 2.163 12 2.163zm0 1.838c-2.99 0-3.34.011-4.513.065-1.08.05-1.662.222-2.052.37-.52.204-.89.449-1.28.84-.39.39-.636.76-.84 1.28-.148.39-.32.972-.37 2.052-.054 1.173-.065 1.523-.065 4.513s.011 3.34.065 4.513c.05 1.08.222 1.662.37 2.052.204.52.449.89.84 1.28.39.39.76.636 1.28.84.39.148.972.32 2.052.37 1.173.054 1.523.065 4.513.065s3.34-.011 4.513-.065c1.08-.05 1.662-.222 2.052-.37.52-.204.89-.449 1.28-.84.39-.39.636-.76.84-1.28.148-.39.32-.972.37-2.052.054-1.173.065-1.523.065-4.513s-.011-3.34-.065-4.513c-.05-1.08-.222-1.662-.37-2.052-.204-.52-.449-.89-.84-1.28-.39-.39-.76-.636-1.28-.84-.39-.148-.972-.32-2.052-.37-1.173-.054-1.523-.065-4.513-.065zm0 3.844a4.993 4.993 0 1 1 0 9.986 4.993 4.993 0 0 1 0-9.986zm0 1.838a3.155 3.155 0 1 0 0 6.31 3.155 3.155 0 0 0 0-6.31zm4.406-1.75a1.125 1.125 0 1 1 0 2.25 1.125 1.125 0 0 1 0-2.25z"/>
</svg>